<svg width="364" height="535" viewBox="0 0 364 535" fill="none" xmlns="http://www.w3.org/2000/svg">
<rect width="364" height="535" fill="none"/>
<path d="M251.609 229.112C270.152 216.593 282.269 201.437 289.857 180.39C297.445 159.342 298.145 136.427 291.856 114.955C285.567 93.4839 272.615 74.5674 254.871 60.9393C237.127 47.3111 215.51 39.677 193.142 39.1398C170.775 38.6026 148.816 45.1901 130.439 57.9507C112.061 70.7113 98.2153 88.9841 90.903 110.129C83.5907 131.274 83.19 154.196 89.7588 175.584C96.3277 196.971 109.526 215.717 127.447 229.112L134.121 220.183C118.094 208.203 106.29 191.439 100.415 172.311C94.5407 153.183 94.899 132.683 101.439 113.773C107.978 94.8619 120.361 78.5199 136.797 67.1077C153.233 55.6955 172.871 49.804 192.875 50.2844C212.879 50.7649 232.212 57.5924 248.081 69.7805C263.95 81.9686 275.533 98.8861 281.158 118.089C286.782 137.292 286.156 157.785 279.369 176.609C272.583 195.432 259.988 211.611 243.405 222.808L251.609 229.112Z" fill="#C7C6C6"/>
<path d="M7 213C7 185.386 29.3858 163 57 163L309 163C336.614 163 359 185.386 359 213V499H7L7 213Z" fill="#E86C6C"/>
<path d="M0 222C0 194.386 22.3858 172 50 172L305 172C332.614 172 355 194.386 355 222V519C355 527.837 347.837 535 339 535H16C7.16344 535 0 527.837 0 519L0 222Z" fill="#EF8787"/>
<path d="M354.031 212.013V208H359.531L364 500.116L357.733 510.947L353 528L354.031 212.013Z" fill="#F39F9F"/>
<circle cx="115.5" cy="222.5" r="9.5" fill="#0E0D0D"/>
<circle cx="115.5" cy="222.5" r="9.5" fill="#0E0D0D"/>
<circle cx="115.5" cy="222.5" r="9.5" fill="#0E0D0D"/>
<circle cx="115.5" cy="222.5" r="7.5" fill="#C4C4C4"/>
<circle cx="238.5" cy="222.5" r="9.5" fill="#0E0D0D"/>
<circle cx="238.5" cy="222.5" r="9.5" fill="#0E0D0D"/>
<circle cx="238.5" cy="222.5" r="9.5" fill="#0E0D0D"/>
<circle cx="238.5" cy="222.5" r="7.5" fill="#C4C4C4"/>
<path d="M355.5 209.997L357.5 508.5" stroke="#EF8787"/>
<path d="M239.5 229.003C258.043 216.483 270.159 201.328 277.747 180.28C285.335 159.233 286.035 136.318 279.747 114.846C273.458 93.3745 260.506 74.4581 242.762 60.8299C225.018 47.2018 203.4 39.5676 181.033 39.0304C158.666 38.4932 136.707 45.0808 118.329 57.8414C99.9512 70.6019 86.106 88.8747 78.7936 110.02C71.4813 131.165 71.0806 154.087 77.6495 175.475C84.2183 196.862 97.4165 215.608 115.337 229.003L122.011 220.074C105.984 208.094 94.1808 191.329 88.306 172.202C82.4313 153.074 82.7897 132.574 89.3293 113.663C95.869 94.7525 108.251 78.4105 124.687 66.9983C141.123 55.5861 160.762 49.6946 180.765 50.1751C200.769 50.6555 220.102 57.483 235.971 69.6711C251.841 81.8592 263.424 98.7768 269.048 117.98C274.673 137.182 274.046 157.676 267.26 176.5C260.474 195.323 247.879 211.502 231.295 222.698L239.5 229.003Z" fill="#C4C4C4"/>
</svg>
